<svg xmlns="http://www.w3.org/2000/svg" width="202.675" height="241.543" viewBox="0 0 202.675 241.543">
  <g id="Grupo_303" data-name="Grupo 303" transform="translate(-922.021 -2046.855)">
    <path id="Caminho_470" data-name="Caminho 470" d="M965.085,2240.541a601.928,601.928,0,0,0,72.059-1.72" fill="none" stroke="#58cbfb" stroke-linecap="round" stroke-miterlimit="10" stroke-width="3"/>
    <path id="Caminho_471" data-name="Caminho 471" d="M973.723,2248.088,953.348,2284.9" fill="none" stroke="#58cbfb" stroke-linecap="round" stroke-miterlimit="10" stroke-width="3"/>
    <path id="Caminho_472" data-name="Caminho 472" d="M1001.3,2248.818q.308,18.441.616,36.884" fill="none" stroke="#58cbfb" stroke-linecap="round" stroke-miterlimit="10" stroke-width="3"/>
    <path id="Caminho_473" data-name="Caminho 473" d="M1010.227,2248.818q4.385,17.841,8.767,35.681" fill="none" stroke="#58cbfb" stroke-linecap="round" stroke-miterlimit="10" stroke-width="3"/>
    <path id="Caminho_474" data-name="Caminho 474" d="M992.3,2249.264l-5.764,36.678" fill="none" stroke="#58cbfb" stroke-linecap="round" stroke-miterlimit="10" stroke-width="3"/>
    <path id="Caminho_475" data-name="Caminho 475" d="M1029.187,2248.818l20.9,33.48" fill="none" stroke="#58cbfb" stroke-linecap="round" stroke-miterlimit="10" stroke-width="3"/>
    <path id="Caminho_476" data-name="Caminho 476" d="M1019.819,2248.818l14.166,35.924" fill="none" stroke="#58cbfb" stroke-linecap="round" stroke-miterlimit="10" stroke-width="3"/>
    <path id="Caminho_477" data-name="Caminho 477" d="M983.795,2248.818q-7.458,18.816-14.915,37.633" fill="none" stroke="#58cbfb" stroke-linecap="round" stroke-miterlimit="10" stroke-width="3"/>
    <path id="Caminho_478" data-name="Caminho 478" d="M996.958,2048.388q2.078,92.834,4.156,185.667" fill="none" stroke="#58cbfb" stroke-linecap="round" stroke-miterlimit="10" stroke-width="3"/>
    <path id="Caminho_479" data-name="Caminho 479" d="M1026.638,2231.981q-4.1-13-8.458-26.219-4.613-14-9.3-27.63,14.33.53,29.621.536,16.8-.012,32.466-.693" fill="none" stroke="#58cbfb" stroke-linecap="round" stroke-miterlimit="10" stroke-width="3"/>
    <path id="Caminho_480" data-name="Caminho 480" d="M1058.984,2278.379l28.905-1q10.4-30.537,20.809-61.073" fill="none" stroke="#58cbfb" stroke-linecap="round" stroke-miterlimit="10" stroke-width="3"/>
    <path id="Caminho_481" data-name="Caminho 481" d="M1080.631,2178.941l.031,23.159c0,1.959.148,4.218,1.721,5.384,1.538,1.14,3.688.675,5.53.156,5.086-1.433,10.651-2.873,15.506-.79,1.918.823,3.583,2.151,5.488,3,3.72,1.659,7.98,1.358,12.039,1.026a2.017,2.017,0,0,0,2.193-2.815l-4.718-34.82a1.194,1.194,0,0,0-1.382-1.269,99.461,99.461,0,0,0-37.495,4.208" fill="none" stroke="#58cbfb" stroke-linecap="round" stroke-miterlimit="10" stroke-width="3"/>
    <path id="Caminho_482" data-name="Caminho 482" d="M1021.335,2169.574c.027-20.947,12.334-38.494,29.055-43.192,15.61-4.385,29.126,4.1,30.814,5.194,16.37,10.633,17.931,29.119,18.072,31.221" fill="none" stroke="#58cbfb" stroke-linecap="round" stroke-miterlimit="10" stroke-width="3"/>
    <path id="Caminho_483" data-name="Caminho 483" d="M951.19,2130.6c.261-1.731.84,8.068,4.115,11.577a17.727,17.727,0,0,0,8.156,4.949c.768-.005-4.643,2.092-7.3,5-3.859,4.22-5.121,12-4.973,10.8a15.886,15.886,0,0,0-3.6-11.146,15.616,15.616,0,0,0-8.329-5.044c-.828-.211,3.166-.935,4.941-2.146C949.584,2140.914,950.982,2132.046,951.19,2130.6Z" fill="none" stroke="#58cbfb" stroke-linecap="round" stroke-miterlimit="10" stroke-width="3"/>
    <path id="Caminho_484" data-name="Caminho 484" d="M923.608,2189.313c-.675-.063,3.4-2.427,5.7-5.164,2.072-2.461,3.055-8.881,3.269-8.148.425-.617,1.97,5.655,4,8.148,1.9,2.328,3.984,4.881,4.9,5.164.66-.031-3.067,1.814-4.9,3.777-2.417,2.589-3.852,9.286-4,8.254a22.2,22.2,0,0,0-4.13-8.254C925.876,2190.365,924.213,2189.319,923.608,2189.313Z" fill="none" stroke="#58cbfb" stroke-linecap="round" stroke-miterlimit="10" stroke-width="3"/>
    <path id="Caminho_485" data-name="Caminho 485" d="M1078.241,2084.373c-4.061-.795,6.442-1.563,10.341-5.452,6.1-6.087,5.907-11.638,5.9-11.486.007.1-.193,5.411,5.189,11.674a21.623,21.623,0,0,0,8.084,5.828c.9-.085-5.662,1.738-9.024,5.077-5.453,5.414-5.8,12.943-5.793,11.965-.125-2.007-.8-6.07-5.488-11.4C1084.092,2086.756,1078.365,2084.412,1078.241,2084.373Z" fill="none" stroke="#58cbfb" stroke-linecap="round" stroke-miterlimit="10" stroke-width="3"/>
  </g>
</svg>
