<svg xmlns="http://www.w3.org/2000/svg" width="221.256" height="206.564" viewBox="0 0 221.256 206.564">
  <g id="Grupo_310" data-name="Grupo 310" transform="translate(-237.178 -157.505)">
    <g id="Grupo_307" data-name="Grupo 307" transform="translate(306.675 159.004)">
      <path id="Caminho_508" data-name="Caminho 508" d="M397.086,189.53q-6.22.145-12.441-.145c-1.454-.067-3.171-.315-3.83-1.614a4.22,4.22,0,0,1-.331-1.679c-.426-7.351-.847-14.79.517-22.026" transform="translate(-370.601 -161.294)" fill="none" stroke="#58cbfb" stroke-linecap="round" stroke-miterlimit="10" stroke-width="3"/>
      <path id="Caminho_509" data-name="Caminho 509" d="M445.313,184.352l.394-18.544c.044-2.1-.054-4.529-1.706-5.833-1.21-.955-2.885-.984-4.427-.969l-47.41.437a60.9,60.9,0,0,0-8.668.493c-.895.137-2,.547-2.026,1.451" transform="translate(-371.233 -159.004)" fill="none" stroke="#58cbfb" stroke-linecap="round" stroke-miterlimit="10" stroke-width="3"/>
      <path id="Caminho_510" data-name="Caminho 510" d="M435.13,208.433c10.8-.795,21.81.825,32.4-1.423.906-.192,2-.622,2.067-1.545" transform="translate(-395.504 -180.018)" fill="none" stroke="#58cbfb" stroke-linecap="round" stroke-miterlimit="10" stroke-width="3"/>
      <path id="Caminho_511" data-name="Caminho 511" d="M379.236,211.492c1.153,3.6-.122,7.579-2.219,10.718s-4.961,5.678-7.456,8.511a45.291,45.291,0,0,0-4.393,5.891A15.208,15.208,0,0,0,363.481,240a16.976,16.976,0,0,0-.618,4.555,117.006,117.006,0,0,0,.768,18.482c.444,3.658,1.214,7.591,3.947,10.063,2.4,2.168,5.791,2.743,8.987,3.227" transform="translate(-362.78 -182.744)" fill="none" stroke="#58cbfb" stroke-linecap="round" stroke-miterlimit="10" stroke-width="3"/>
      <path id="Caminho_512" data-name="Caminho 512" d="M389.988,300.838q-.763,26.13-.051,52.274a29.253,29.253,0,0,0,1.009,8.164c.978,3.053,3.119,5.9,6.341,6.694a6.113,6.113,0,0,0,4.521-.6c2.579-1.5,2.819-4.241,2.973-6.778q1.572-25.838,1.013-51.747" transform="translate(-374.907 -223.155)" fill="none" stroke="#58cbfb" stroke-linecap="round" stroke-miterlimit="10" stroke-width="3"/>
      <path id="Caminho_513" data-name="Caminho 513" d="M414.245,372.9c.986,4.4,3.575,9.125,8.561,9.154a8.353,8.353,0,0,0,6.681-3.532c3.452-4.677,2.98-10.383,2.725-15.817-.5-10.707.007-21.433.516-32.14l.662-13.906" transform="translate(-386.057 -230.312)" fill="none" stroke="#58cbfb" stroke-linecap="round" stroke-miterlimit="10" stroke-width="3"/>
      <path id="Caminho_514" data-name="Caminho 514" d="M446.778,369.72a5.907,5.907,0,0,0,7.14,4.651c4.009-1.131,5.457-5.984,6.061-10.106,2.408-16.451,1.746-33.178,1.078-49.791" transform="translate(-400.772 -229.322)" fill="none" stroke="#58cbfb" stroke-linecap="round" stroke-miterlimit="10" stroke-width="3"/>
      <path id="Caminho_515" data-name="Caminho 515" d="M474.155,305.974c.861,2.915,4.6,4.286,7.462,3.259s4.779-3.839,5.561-6.777a46.159,46.159,0,0,0,1.405-9.1c.81-13.982-.579-27.188-.309-40.338.143-6.984,1.226-14.181-1.113-20.764-2.415-6.8-8.039-13.136-6.587-20.2" transform="translate(-413.154 -182.999)" fill="none" stroke="#58cbfb" stroke-linecap="round" stroke-miterlimit="10" stroke-width="3"/>
    </g>
    <g id="Grupo_308" data-name="Grupo 308" transform="translate(350.501 252.194)">
      <path id="Caminho_516" data-name="Caminho 516" d="M581.47,425.358q4.046-4.726,8.416-9.163c1.021-1.037,2.352-2.15,3.758-1.773a4.21,4.21,0,0,1,1.471.874c5.757,4.592,11.575,9.246,16.05,15.094" transform="translate(-505.519 -367.685)" fill="none" stroke="#58cbfb" stroke-linecap="round" stroke-miterlimit="10" stroke-width="3"/>
      <path id="Caminho_517" data-name="Caminho 517" d="M527.363,476.075,540.9,488.752c1.536,1.438,3.407,2.985,5.481,2.626,1.519-.263,2.659-1.491,3.678-2.648L581.4,453.149a60.865,60.865,0,0,0,5.422-6.781c.5-.758.926-1.852.272-2.478" transform="translate(-481.046 -381.047)" fill="none" stroke="#58cbfb" stroke-linecap="round" stroke-miterlimit="10" stroke-width="3"/>
      <path id="Caminho_518" data-name="Caminho 518" d="M547.746,452.092c-6.621,8.57-15.18,15.682-20.581,25.07-.462.8-.87,1.9-.23,2.57" transform="translate(-480.703 -384.757)" fill="none" stroke="#58cbfb" stroke-linecap="round" stroke-miterlimit="10" stroke-width="3"/>
      <path id="Caminho_519" data-name="Caminho 519" d="M554.626,379.018c-3.446-1.543-5.56-5.152-6.5-8.81s-.913-7.483-1.356-11.233a45.382,45.382,0,0,0-1.451-7.2,15.223,15.223,0,0,0-1.394-3.517,16.98,16.98,0,0,0-2.977-3.5,117.033,117.033,0,0,0-14.269-11.771c-3.019-2.112-6.461-4.165-10.126-3.782-3.214.335-5.91,2.479-8.4,4.534" transform="translate(-472.358 -329.151)" fill="none" stroke="#58cbfb" stroke-linecap="round" stroke-miterlimit="10" stroke-width="3"/>
      <path id="Caminho_520" data-name="Caminho 520" d="M516.278,348.064,500.656,334.02" transform="translate(-468.967 -331.353)" fill="none" stroke="#58cbfb" stroke-linecap="round" stroke-miterlimit="10" stroke-width="3"/>
      <path id="Caminho_521" data-name="Caminho 521" d="M442.8,429.931c6.118,5.4,9.3,8.155,12.369,10.771,8.431,7.175,12.646,10.763,16.2,13.038a71.008,71.008,0,0,0,19.436,8.589" transform="translate(-442.798 -374.733)" fill="none" stroke="#58cbfb" stroke-linecap="round" stroke-miterlimit="10" stroke-width="3"/>
    </g>
    <g id="Grupo_309" data-name="Grupo 309" transform="translate(238.735 251.418)">
      <path id="Caminho_522" data-name="Caminho 522" d="M269.764,425.2q-4.046-4.726-8.415-9.163c-1.021-1.037-2.353-2.149-3.759-1.772a4.207,4.207,0,0,0-1.471.874c-5.756,4.592-11.575,9.246-16.05,15.094" transform="translate(-239.339 -366.837)" fill="none" stroke="#58cbfb" stroke-linecap="round" stroke-miterlimit="10" stroke-width="3"/>
      <path id="Caminho_523" data-name="Caminho 523" d="M298.8,475.917l-13.539,12.677c-1.536,1.438-3.407,2.985-5.48,2.626-1.519-.263-2.66-1.491-3.678-2.648L244.761,452.99a60.857,60.857,0,0,1-5.422-6.781c-.5-.757-.927-1.851-.273-2.477" transform="translate(-238.735 -380.199)" fill="none" stroke="#58cbfb" stroke-linecap="round" stroke-miterlimit="10" stroke-width="3"/>
      <path id="Caminho_524" data-name="Caminho 524" d="M310.552,451.933c6.622,8.57,15.18,15.682,20.581,25.07.462.8.87,1.9.23,2.569" transform="translate(-271.217 -383.908)" fill="none" stroke="#58cbfb" stroke-linecap="round" stroke-miterlimit="10" stroke-width="3"/>
      <path id="Caminho_525" data-name="Caminho 525" d="M282.753,378.86c3.446-1.543,5.56-5.152,6.5-8.81s.913-7.484,1.356-11.234a45.275,45.275,0,0,1,1.451-7.2,15.243,15.243,0,0,1,1.393-3.517,16.964,16.964,0,0,1,2.977-3.5A117.028,117.028,0,0,1,310.7,332.822c3.019-2.112,6.461-4.166,10.126-3.783,3.214.336,5.91,2.479,8.4,4.535" transform="translate(-258.644 -328.303)" fill="none" stroke="#58cbfb" stroke-linecap="round" stroke-miterlimit="10" stroke-width="3"/>
      <path id="Caminho_526" data-name="Caminho 526" d="M347.579,344.586l18.312-16.853" transform="translate(-287.964 -327.733)" fill="none" stroke="#58cbfb" stroke-linecap="round" stroke-miterlimit="10" stroke-width="3"/>
      <path id="Caminho_527" data-name="Caminho 527" d="M389.78,435.5c-8.619,7.31-21.826,18.641-25.03,20.672a73.262,73.262,0,0,1-19.436,8.589" transform="translate(-286.94 -376.476)" fill="none" stroke="#58cbfb" stroke-linecap="round" stroke-miterlimit="10" stroke-width="3"/>
    </g>
  </g>
</svg>
