<svg xmlns="http://www.w3.org/2000/svg" width="312.552" height="192.471" viewBox="0 0 312.552 192.471">
  <g id="Grupo_353" data-name="Grupo 353" transform="translate(-116.306 -154.119)">
    <g id="Grupo_347" data-name="Grupo 347" transform="translate(220.99 285.675)">
      <path id="Caminho_655" data-name="Caminho 655" d="M284.711,330.195c-27.377-8.322-43.817-13.8-48.028-16.145a8.714,8.714,0,0,0-4.247-.883,5.881,5.881,0,0,0-5.327,6.188c.376,3.872,4.376,6.185,7.91,7.81a575.582,575.582,0,0,0,60.582,23.71c3.923,1.291,8.089,2.554,12.119,1.651,3.834-.859,5.2-2.559,10.69-6.638,2.765-2.053,10.754-6.154,26.733-14.356,0,0,.7-.221,1.785-.528,0,0,2.07-.585,4.1-1.046,10.371-2.351,49.733,5.31,49.733,5.31a65.016,65.016,0,0,0,20.743.429c3.685-.533,7.111-1.392,9.451-4.207,2.423-2.915,2.49-6.491,2.5-8.54.056-11.108-9.556-19.632-11.985-21.682-48.945-2-67.658-3.176-69.795-3.858l-.2-.063c-.731-.231-3.228-1.009-6.519-1.841-5.769-1.458-8.654-2.187-10.829-2.143-5.386.107-7.249,3.573-16.5,9.694a91.2,91.2,0,0,1-12.931,7.25c-5.98,2.7-17.038,6.8-22.012,11.139-2.564,2.239-2.512,3.672-2.418,4.206a3.051,3.051,0,0,0,1.1,1.73c1.587,1.373,6.977,3.785,17.274,1.075,2.747-.723,5.394-1.693,14.008-6.089,5.728-2.924,10.418-5.487,13.719-7.333" transform="translate(-227.086 -293.361)" fill="none" stroke="#58cbfb" stroke-miterlimit="10" stroke-width="3"/>
      <path id="Caminho_656" data-name="Caminho 656" d="M292.942,316.3c-17.193-5.459-30.189-9.108-35.179-10.145a12.137,12.137,0,0,0-6.021.1,12.34,12.34,0,0,0-5.791,3.865,17.472,17.472,0,0,0,2.071,4.559,18.89,18.89,0,0,0,9.384,7.334" transform="translate(-228.138 -294.056)" fill="none" stroke="#58cbfb" stroke-miterlimit="10" stroke-width="3"/>
    </g>
    <g id="Grupo_348" data-name="Grupo 348" transform="translate(117.806 155.563)">
      <path id="Caminho_657" data-name="Caminho 657" d="M266.549,178.2c27.377,8.322,43.817,13.8,48.028,16.145a8.715,8.715,0,0,0,4.248.883,5.879,5.879,0,0,0,5.326-6.188c-.375-3.872-4.375-6.186-7.91-7.81a575.587,575.587,0,0,0-60.582-23.71c-3.922-1.291-8.089-2.554-12.118-1.651-3.834.859-5.2,2.559-10.69,6.638-2.765,2.053-10.755,6.153-26.734,14.356,0,0-.7.221-1.786.528,0,0-2.07.585-4.1,1.046-10.372,2.351-49.734-5.31-49.734-5.31a65.013,65.013,0,0,0-20.743-.429c-3.685.533-7.11,1.392-9.451,4.206-2.422,2.915-2.489,6.492-2.5,8.54-.056,11.108,9.555,19.632,11.985,21.682,48.945,2,67.658,3.176,69.8,3.858l.2.063c.73.231,3.227,1.009,6.518,1.841,5.769,1.458,8.654,2.187,10.83,2.143,5.386-.107,7.248-3.573,16.5-9.694a91.193,91.193,0,0,1,12.931-7.25c5.98-2.7,17.039-6.8,22.013-11.139,2.563-2.239,2.511-3.672,2.418-4.206a3.046,3.046,0,0,0-1.1-1.73c-1.587-1.374-6.976-3.785-17.274-1.075-2.748.723-5.394,1.693-14.008,6.089-5.729,2.924-10.419,5.487-13.719,7.333" transform="translate(-117.806 -155.563)" fill="none" stroke="#58cbfb" stroke-miterlimit="10" stroke-width="3"/>
      <path id="Caminho_658" data-name="Caminho 658" d="M267.734,194.647c17.192,5.459,30.189,9.108,35.178,10.145a12.14,12.14,0,0,0,6.022-.1,12.35,12.35,0,0,0,5.791-3.865,17.529,17.529,0,0,0-2.072-4.56,18.889,18.889,0,0,0-9.384-7.333" transform="translate(-126.169 -157.424)" fill="none" stroke="#58cbfb" stroke-miterlimit="10" stroke-width="3"/>
    </g>
    <g id="Grupo_352" data-name="Grupo 352" transform="translate(212.728 216.324)">
      <g id="Grupo_349" data-name="Grupo 349" transform="translate(0.572)">
        <path id="Caminho_659" data-name="Caminho 659" d="M237.748,295.735c7.2-2.161,11.347-9.827,12.806-17.2s1.028-15.065,2.938-22.336,7.16-14.519,14.633-15.325c6.217-.67,11.883,3.2,17.22,6.458C296.1,253.9,309.787,258.594,321.083,253" transform="translate(-219.99 -221.079)" fill="none" stroke="#58cbfb" stroke-miterlimit="10" stroke-width="3"/>
        <path id="Caminho_660" data-name="Caminho 660" d="M218.941,260.426c10.691-3.2,22.593-.284,31.835,5.969,4.643,3.141,9.04,7.217,14.588,8.016,7.7,1.109,14.961-4.726,18.475-11.669s4.273-14.893,5.83-22.518,4.288-15.554,10.445-20.311" transform="translate(-218.941 -219.914)" fill="none" stroke="#58cbfb" stroke-miterlimit="10" stroke-width="3"/>
        <path id="Caminho_661" data-name="Caminho 661" d="M244.458,293.788l-6.077-11.14" transform="translate(-220.025 -223.413)" fill="none" stroke="#58cbfb" stroke-miterlimit="10" stroke-width="3"/>
        <path id="Caminho_662" data-name="Caminho 662" d="M233.931,272.478l-5.354-11.043" transform="translate(-219.479 -222.23)" fill="none" stroke="#58cbfb" stroke-miterlimit="10" stroke-width="3"/>
        <path id="Caminho_663" data-name="Caminho 663" d="M271.765,277.216l-3.852-7.354" transform="translate(-221.673 -222.7)" fill="none" stroke="#58cbfb" stroke-miterlimit="10" stroke-width="3"/>
        <path id="Caminho_664" data-name="Caminho 664" d="M263.134,259.747l-5.493-10.173" transform="translate(-221.1 -221.568)" fill="none" stroke="#58cbfb" stroke-miterlimit="10" stroke-width="3"/>
        <path id="Caminho_665" data-name="Caminho 665" d="M286.031,265.592l-4.83-9.535" transform="translate(-222.414 -221.93)" fill="none" stroke="#58cbfb" stroke-miterlimit="10" stroke-width="3"/>
        <path id="Caminho_666" data-name="Caminho 666" d="M275.025,247.223q-1.762-3.262-3.523-6.525" transform="translate(-221.873 -221.073)" fill="none" stroke="#58cbfb" stroke-miterlimit="10" stroke-width="3"/>
        <path id="Caminho_667" data-name="Caminho 667" d="M316.27,255.619q-3.194-5.44-6.39-10.879" transform="translate(-224.014 -221.299)" fill="none" stroke="#58cbfb" stroke-miterlimit="10" stroke-width="3"/>
        <path id="Caminho_668" data-name="Caminho 668" d="M304.178,235.364l-4.8-9.226" transform="translate(-223.428 -220.261)" fill="none" stroke="#58cbfb" stroke-miterlimit="10" stroke-width="3"/>
        <path id="Caminho_669" data-name="Caminho 669" d="M269.866,261.874a5.184,5.184,0,0,1,.376,4.63,4.975,4.975,0,0,1-2.717,2.8,4.779,4.779,0,0,1-6.287-2.947,5.059,5.059,0,0,1,.11-3.565,4.915,4.915,0,0,1,2.273-2.476A5.08,5.08,0,0,1,269.866,261.874Z" transform="translate(-221.285 -222.141)" fill="none" stroke="#58cbfb" stroke-miterlimit="10" stroke-width="3"/>
        <path id="Caminho_670" data-name="Caminho 670" d="M240.333,274.661a5.18,5.18,0,0,1,.377,4.629,4.975,4.975,0,0,1-2.717,2.8,4.78,4.78,0,0,1-6.288-2.946,5.071,5.071,0,0,1,.11-3.565,4.91,4.91,0,0,1,2.274-2.476A5.076,5.076,0,0,1,240.333,274.661Z" transform="translate(-219.638 -222.854)" fill="none" stroke="#58cbfb" stroke-miterlimit="10" stroke-width="3"/>
        <path id="Caminho_671" data-name="Caminho 671" d="M281.967,248.749a5.182,5.182,0,0,1,.376,4.63,4.973,4.973,0,0,1-2.716,2.8,4.781,4.781,0,0,1-6.288-2.946,5.066,5.066,0,0,1,.11-3.565,4.91,4.91,0,0,1,2.274-2.476A5.077,5.077,0,0,1,281.967,248.749Z" transform="translate(-221.96 -221.409)" fill="none" stroke="#58cbfb" stroke-miterlimit="10" stroke-width="3"/>
        <path id="Caminho_672" data-name="Caminho 672" d="M310.96,237.206a5.182,5.182,0,0,1,.377,4.63,4.978,4.978,0,0,1-2.717,2.8,4.78,4.78,0,0,1-6.288-2.946,5.074,5.074,0,0,1,.11-3.566,4.914,4.914,0,0,1,2.274-2.476A5.079,5.079,0,0,1,310.96,237.206Z" transform="translate(-223.577 -220.765)" fill="none" stroke="#58cbfb" stroke-miterlimit="10" stroke-width="3"/>
      </g>
      <g id="Grupo_350" data-name="Grupo 350" transform="translate(70.16 42.068)">
        <path id="Caminho_673" data-name="Caminho 673" d="M305.562,274.77a2.635,2.635,0,0,1,1.927,1.363,2.529,2.529,0,0,1,.2,1.971,2.427,2.427,0,0,1-3.2,1.489,2.571,2.571,0,0,1-1.354-1.206,2.5,2.5,0,0,1-.223-1.693A2.581,2.581,0,0,1,305.562,274.77Z" transform="translate(-293.21 -265.041)" fill="none" stroke="#58cbfb" stroke-miterlimit="10" stroke-width="3"/>
        <path id="Caminho_674" data-name="Caminho 674" d="M295.348,272.51a2.633,2.633,0,0,1,1.927,1.363,2.529,2.529,0,0,1,.2,1.971,2.429,2.429,0,0,1-3.2,1.489,2.571,2.571,0,0,1-1.353-1.206,2.5,2.5,0,0,1-.224-1.694A2.581,2.581,0,0,1,295.348,272.51Z" transform="translate(-292.641 -264.915)" fill="none" stroke="#58cbfb" stroke-miterlimit="10" stroke-width="3"/>
        <path id="Caminho_675" data-name="Caminho 675" d="M310.415,282.285a2.635,2.635,0,0,1,1.927,1.363,2.529,2.529,0,0,1,.2,1.971,2.428,2.428,0,0,1-3.2,1.489,2.573,2.573,0,0,1-1.353-1.206,2.5,2.5,0,0,1-.223-1.693A2.58,2.58,0,0,1,310.415,282.285Z" transform="translate(-293.481 -265.46)" fill="none" stroke="#58cbfb" stroke-miterlimit="10" stroke-width="3"/>
        <path id="Caminho_676" data-name="Caminho 676" d="M307.2,264.477a2.633,2.633,0,0,1,1.927,1.363,2.529,2.529,0,0,1,.2,1.971,2.454,2.454,0,0,1-1.662,1.574,2.479,2.479,0,0,1-1.537-.085,2.573,2.573,0,0,1-1.353-1.206,2.5,2.5,0,0,1-.223-1.693A2.58,2.58,0,0,1,307.2,264.477Z" transform="translate(-293.302 -264.467)" fill="none" stroke="#58cbfb" stroke-miterlimit="10" stroke-width="3"/>
        <path id="Caminho_677" data-name="Caminho 677" d="M308.463,282.093l-1.164-2.067" transform="translate(-293.458 -265.335)" fill="none" stroke="#58cbfb" stroke-miterlimit="10" stroke-width="3"/>
        <path id="Caminho_678" data-name="Caminho 678" d="M302,276.946l-3.113-.689" transform="translate(-292.989 -265.125)" fill="none" stroke="#58cbfb" stroke-miterlimit="10" stroke-width="3"/>
        <path id="Caminho_679" data-name="Caminho 679" d="M306.147,274.063l.64-3.606" transform="translate(-293.394 -264.801)" fill="none" stroke="#58cbfb" stroke-miterlimit="10" stroke-width="3"/>
      </g>
      <g id="Grupo_351" data-name="Grupo 351" transform="translate(0 12.669)">
        <path id="Caminho_680" data-name="Caminho 680" d="M243.045,233.952a3.027,3.027,0,0,1,.942,2.546,2.909,2.909,0,0,1-1.087,2,2.792,2.792,0,0,1-4-.666,2.955,2.955,0,0,1-.5-2.023,2.871,2.871,0,0,1,.889-1.752A2.966,2.966,0,0,1,243.045,233.952Z" transform="translate(-219.453 -233.332)" fill="none" stroke="#58cbfb" stroke-miterlimit="10" stroke-width="3"/>
        <path id="Caminho_681" data-name="Caminho 681" d="M223.005,241.461a3.029,3.029,0,0,1,.942,2.545,2.909,2.909,0,0,1-1.088,2,2.793,2.793,0,0,1-4-.666,2.963,2.963,0,0,1-.5-2.023,2.873,2.873,0,0,1,.889-1.752A2.967,2.967,0,0,1,223.005,241.461Z" transform="translate(-218.336 -233.751)" fill="none" stroke="#58cbfb" stroke-miterlimit="10" stroke-width="3"/>
        <path id="Caminho_682" data-name="Caminho 682" d="M241.781,250.711a3.027,3.027,0,0,1,.942,2.546,2.91,2.91,0,0,1-1.087,2,2.792,2.792,0,0,1-4-.666,2.958,2.958,0,0,1-.5-2.023,2.873,2.873,0,0,1,.889-1.752A2.967,2.967,0,0,1,241.781,250.711Z" transform="translate(-219.383 -234.267)" fill="none" stroke="#58cbfb" stroke-miterlimit="10" stroke-width="3"/>
        <path id="Caminho_683" data-name="Caminho 683" d="M233.611,241.983a3.028,3.028,0,0,1,.941,2.546,2.9,2.9,0,0,1-1.087,2,2.792,2.792,0,0,1-4-.666,2.961,2.961,0,0,1-.5-2.023,2.871,2.871,0,0,1,.889-1.751A2.967,2.967,0,0,1,233.611,241.983Z" transform="translate(-218.927 -233.78)" fill="none" stroke="#58cbfb" stroke-miterlimit="10" stroke-width="3"/>
        <path id="Caminho_684" data-name="Caminho 684" d="M237.589,250.274,234.9,247.4" transform="translate(-219.259 -234.117)" fill="none" stroke="#58cbfb" stroke-miterlimit="10" stroke-width="3"/>
        <path id="Caminho_685" data-name="Caminho 685" d="M228.163,244.138l-3.479-.178" transform="translate(-218.69 -233.925)" fill="none" stroke="#58cbfb" stroke-miterlimit="10" stroke-width="3"/>
        <path id="Caminho_686" data-name="Caminho 686" d="M235.049,241.725l2.979-2.579" transform="translate(-219.268 -233.656)" fill="none" stroke="#58cbfb" stroke-miterlimit="10" stroke-width="3"/>
      </g>
    </g>
  </g>
</svg>
