<svg xmlns="http://www.w3.org/2000/svg" width="207.519" height="215.665" viewBox="0 0 207.519 215.665">
  <g id="Grupo_304" data-name="Grupo 304" transform="translate(-2047.946 -2064.532)">
    <path id="Caminho_486" data-name="Caminho 486" d="M2164.914,2196.771c-.284-1.227-1.881-8.711,2.58-14.227,4-4.95,9.907-4.632,11.139-4.565,6.874.371,14.863,6.091,15.69,14.825a17.184,17.184,0,0,1-4.233,12.592c-5.568,5.842-14.6,4.891-19.925.316A17.259,17.259,0,0,1,2164.914,2196.771Z" fill="none" stroke="#58cbfb" stroke-linecap="round" stroke-miterlimit="10" stroke-width="3"/>
    <path id="Caminho_487" data-name="Caminho 487" d="M2157.115,2278.651q.459-14.74.591-30.039.092-11.21-.005-22.123a46.687,46.687,0,0,1-18.692-17.834c-5.354-8.7-7.932-16.847-12.869-32.791-.8-2.6-2.11-7.023-.329-11.5.212-.534,2.1-5.134,4.807-5.082,2.549.049,4.224,4.181,4.723,5.41,1.713,4.224,1.012,7.442.986,10.68-.064,7.792,3.567,13.561,8.868,22.045,4.174,6.68,6.753,8.214,8.315,8.913,1.321.592,2.41.808,5.669,2.047,2.975,1.131,5.346,2.2,6.885,2.921" fill="none" stroke="#58cbfb" stroke-linecap="round" stroke-miterlimit="10" stroke-width="3"/>
    <path id="Caminho_488" data-name="Caminho 488" d="M2090.166,2119.242c-.285-1.227-1.882-8.71,2.58-14.227,4-4.949,9.906-4.631,11.139-4.564,6.873.371,14.862,6.09,15.69,14.824a17.191,17.191,0,0,1-4.234,12.593c-5.567,5.842-14.6,4.891-19.925.316A17.257,17.257,0,0,1,2090.166,2119.242Z" fill="none" stroke="#58cbfb" stroke-linecap="round" stroke-miterlimit="10" stroke-width="3"/>
    <path id="Caminho_489" data-name="Caminho 489" d="M2085.156,2209.888l-.765,61.912" fill="none" stroke="#58cbfb" stroke-linecap="round" stroke-miterlimit="10" stroke-width="3"/>
    <path id="Caminho_490" data-name="Caminho 490" d="M2105.432,2222.774l-.693,50.565" fill="none" stroke="#58cbfb" stroke-linecap="round" stroke-miterlimit="10" stroke-width="3"/>
    <path id="Caminho_491" data-name="Caminho 491" d="M2126.321,2209.54q.98,32.74,1.959,65.482" fill="none" stroke="#58cbfb" stroke-linecap="round" stroke-miterlimit="10" stroke-width="3"/>
    <path id="Caminho_492" data-name="Caminho 492" d="M2117.06,2078.419a14.992,14.992,0,0,0,6.391-3.053,16,16,0,0,0,5.482-10.7,15.347,15.347,0,0,0,8.4,13.5,12.665,12.665,0,0,0-9.99,11.773,11.147,11.147,0,0,0-2.43-7.533A11.276,11.276,0,0,0,2117.06,2078.419Z" fill="none" stroke="#58cbfb" stroke-linecap="round" stroke-miterlimit="10" stroke-width="3"/>
    <path id="Caminho_493" data-name="Caminho 493" d="M2224.142,2121.777a19.88,19.88,0,0,0,8.478-4.05,21.214,21.214,0,0,0,7.271-14.185,20.354,20.354,0,0,0,11.137,17.908,16.8,16.8,0,0,0-13.251,15.616,14.784,14.784,0,0,0-3.223-9.992A14.953,14.953,0,0,0,2224.142,2121.777Z" fill="none" stroke="#58cbfb" stroke-linecap="round" stroke-miterlimit="10" stroke-width="3"/>
    <path id="Caminho_494" data-name="Caminho 494" d="M2203.341,2278.651q-.459-14.74-.59-30.039-.093-11.21,0-22.123a46.669,46.669,0,0,0,18.692-17.834c5.355-8.7,7.932-16.847,12.87-32.791.8-2.6,2.11-7.023.328-11.5-.212-.534-2.1-5.134-4.807-5.082-2.548.049-4.224,4.181-4.723,5.41-1.713,4.224-1.012,7.442-.985,10.68.064,7.792-3.568,13.561-8.869,22.045-4.173,6.68-6.753,8.214-8.315,8.913-1.32.592-2.409.808-5.669,2.047-2.974,1.131-5.345,2.2-6.884,2.921" fill="none" stroke="#58cbfb" stroke-linecap="round" stroke-miterlimit="10" stroke-width="3"/>
    <path id="Caminho_495" data-name="Caminho 495" d="M2090.516,2135.471c-1.539-.724-3.91-1.79-6.884-2.921-3.26-1.239-4.349-1.455-5.669-2.047-1.563-.7-4.142-2.233-8.315-8.913-5.3-8.484-8.905-14.252-8.869-22.045.016-3.369.709-6.5-.986-10.68-.5-1.229-2.174-5.361-4.722-5.41-2.71-.052-4.595,4.548-4.808,5.082-1.75,4.4-.51,8.72.329,11.5,6.715,22.271,11.793,30.991,12.87,32.791a48.884,48.884,0,0,0,6.013,8.136c.152.164.9.967,1.811,1.847,4.752,4.578,8.965,6.36,10.868,7.851,3.449,2.7,3.746,7.924,2.309,25.032-.629,7.489-1.539,16.651-2.895,27.13h46.226l-.222-7.861" fill="none" stroke="#58cbfb" stroke-linecap="round" stroke-miterlimit="10" stroke-width="3"/>
    <path id="Caminho_496" data-name="Caminho 496" d="M2118.845,2135.471c1.539-.724,3.91-1.79,6.885-2.921,3.259-1.239,4.348-1.455,5.669-2.047,1.562-.7,4.141-2.233,8.314-8.913,5.3-8.484,8.933-14.252,8.869-22.045-.027-3.237-.727-6.456.986-10.68.5-1.229,2.174-5.361,4.722-5.41,2.71-.052,4.6,4.548,4.808,5.082,1.781,4.478.476,8.9-.329,11.5-4.937,15.944-7.515,24.094-12.869,32.791a46.681,46.681,0,0,1-18.693,17.834c-.006.721-.016,1.989-.025,3.563" fill="none" stroke="#58cbfb" stroke-linecap="round" stroke-miterlimit="10" stroke-width="3"/>
  </g>
</svg>
