<svg xmlns="http://www.w3.org/2000/svg" width="246.203" height="228.055" viewBox="0 0 246.203 228.055">
  <g id="Grupo_331" data-name="Grupo 331" transform="translate(-83.918 -248.58)">
    <g id="Grupo_167" data-name="Grupo 167" transform="translate(122.726 363.78)">
      <path id="Caminho_644" data-name="Caminho 644" d="M129.3,387.684q5.6-.132,11.181-.748c5.428-.6,12.219.184,13.323-5.9,1.278-7.029.761-14.9,1.124-22.037.507-1.016,7.8,5.005,12.091,2.873s5.9-6.321,5.616-10.818c-.677-3.78-1.583-6.877-6.73-8.764s-10.66,3.942-10.623,2.04a127.893,127.893,0,0,0,.067-21.219,71.57,71.57,0,0,0-20.612-1.893c-.81.537,5.209-7.871,1.474-13.345a8.333,8.333,0,0,0-7.563-4.508c-1.963-.114-6.1,1.07-7.628,3.821-2.8,4.288,1.138,13.7,0,13.167-5.064-.333-14.38-.311-16.909.2-7.3,1.478-4.618,19.579-4.694,26.371" transform="translate(-98.999 -303.358)" fill="none" stroke="#58cbfb" stroke-linecap="round" stroke-miterlimit="10" stroke-width="3"/>
    </g>
    <path id="Caminho_645" data-name="Caminho 645" d="M190.043,374.987q-12.806.423-25.617-.186a11.548,11.548,0,0,1-5.618-1.253c-2.78-1.725-2.5-4.861-2.511-8.285-.008-1.867-.421-3.987.667-5.5h0c1.147-1.4,6.548,2.834,10.052,2.666,5.336-.253,10.8-4.1,9.729-10.786a9.5,9.5,0,0,0-1.952-4.414c-4.461-5.557-17.679-.441-17.562-.938a202.471,202.471,0,0,1-.934-28.056,3.736,3.736,0,0,1,4.365-4.4q9.172-.57,18.375-.239c1.1-.241-2.78,8.24-1.051,13.167a7.7,7.7,0,0,0,2.288,3.529c2.192,1.756,6.326,2.367,8.845,1.12a8.907,8.907,0,0,0,4.228-5.877c.859-4.915-3.613-12.28-3.137-12.211a139.707,139.707,0,0,1,17.989-.031,6.2,6.2,0,0,1,3.848,1.143,6.032,6.032,0,0,1,1.537,3.159,92.74,92.74,0,0,1,2.29,24.169" transform="translate(70.61 69.014)" fill="none" stroke="#58cbfb" stroke-linecap="round" stroke-miterlimit="10" stroke-width="3"/>
    <path id="Caminho_646" data-name="Caminho 646" d="M188.312,262.458c-8.552-.683-15.609-1.022-24.161-1.705a29.144,29.144,0,0,0-4.447-.127,1.715,1.715,0,0,0-1.566,1.946l.164,1.178a1.42,1.42,0,0,1,.016.229l.067,18.729c-.035,1.155,6.186-2.707,11.52-.994s5.456,6.109,5.281,10.633c-.631,4.431-4.375,7.483-8.617,6.792-3.314.135-8.707-4.98-8.879-3.067l-.327,18.545a4.068,4.068,0,0,0,.364,2.165,4,4,0,0,0,2.78,1.476c6.5,1.364,15.741,1.159,19.794,1.67,1.3-.193-6.127,9.908-2.754,15.085,1.58,2.427,7.14,3.33,10.035,3.326,3.684-.122,6.642-2.968,8.319-7.887,1.145-3.363-.305-7.455-2.5-10.252-.956-1.412,12.242.166,18.314-.56a4.3,4.3,0,0,0,2.707-1,4.378,4.378,0,0,0,.871-2.672l1.617-16.86" transform="translate(72.423 21.511)" fill="none" stroke="#58cbfb" stroke-linecap="round" stroke-miterlimit="10" stroke-width="3"/>
    <path id="Caminho_647" data-name="Caminho 647" d="M101.685,294.717c-.268,6.07-.376,12.156-.482,18.222-.033,1.854.084,4.017,1.6,5.084a5.76,5.76,0,0,0,2.881.767l7.446.624a5.141,5.141,0,0,0,2.815-.292c1.7-.883,1.852-3.337,1.112-5.1s-2.1-3.234-2.752-5.037c-1.584-4.383,2.069-9.572,6.685-10.218s9.239,2.672,10.84,7.051-2.932,13.689-2.073,13.313a74.9,74.9,0,0,0,20.064.836c1.623-.151,3.473-.5,4.287-1.916a5.336,5.336,0,0,0,.485-2.643l.143-13.843c-.942-1.1,6.264,4.206,10.925,2.8,4.371-1.035,5.74-3.934,6.793-7.638.673-2.332.148-6.771-3.416-8.651-5.192-3.055-12.011-.809-11.428-2.165.752-7.511,4.3-23.294,3.494-23.315a202.822,202.822,0,0,0-32.711-4.089" transform="translate(26.023 19.336)" fill="none" stroke="#58cbfb" stroke-linecap="round" stroke-miterlimit="10" stroke-width="3"/>
    <path id="Caminho_649" data-name="Caminho 649" d="M239.955,365.036c-4.338-1.852-8.846-3.827-11.864-7.452-6.466-7.771-3.735-19.817-8.37-28.8a6.1,6.1,0,0,0-2.588-2.9c-3.729-1.752-7.039,3.482-6.912,7.6s.722,10.748.746,10.358c-.452-7.213-7.615-12.369-14.427-14.79a9.312,9.312,0,0,0-6.26-.335c-2,.734-3.612,2.815-3.249,4.917.276,1.584,1.529,2.793,2.713,3.88l9.856,9.049c.452.272-9.085-4.976-14.194-4.956-3.878.016-8.742,2.506-7.916,6.295.464,2.132,2.578,3.427,4.512,4.438,4.4,2.3,13.8,6.522,13.422,6.438-4.516-1.746-9.288-3.523-14.078-2.811s-9.433,4.884-8.83,9.688c.493,3.919,4.273,6.765,8.155,7.484s11.794-1.125,11.7-1.145A18.619,18.619,0,0,0,179.1,382.7a4.653,4.653,0,0,0,0,2.852,2.1,2.1,0,0,0,.953,1.372c6.383,4.749,15.125-.748,23.055-1.372,7.35-.577,14.248,3.245,20.626,6.939" transform="translate(88.197 82.094)" fill="none" stroke="#58cbfb" stroke-linecap="round" stroke-miterlimit="10" stroke-width="3"/>
    <path id="Caminho_652" data-name="Caminho 652" d="M239.955,365.976c-4.338,1.852-8.846,3.827-11.864,7.452-6.467,7.771-3.735,19.816-8.37,28.8a6.1,6.1,0,0,1-2.588,2.9c-3.729,1.752-7.039-3.482-6.912-7.6s.722-10.748.746-10.358c-.452,7.213-7.615,12.369-14.427,14.79a9.312,9.312,0,0,1-6.26.335c-2-.734-3.612-2.815-3.249-4.917.276-1.585,1.529-2.793,2.713-3.88l9.856-9.049c.452-.272-9.085,4.976-14.194,4.956-3.878-.016-8.742-2.506-7.916-6.295.464-2.132,2.578-3.427,4.512-4.438,4.4-2.3,13.8-6.522,13.422-6.438-4.516,1.746-9.288,3.522-14.078,2.811s-9.433-4.884-8.83-9.688c.493-3.919,4.273-6.765,8.155-7.485s11.794,1.125,11.7,1.145a18.62,18.62,0,0,1-13.268-10.7,4.653,4.653,0,0,1,0-2.852,2.1,2.1,0,0,1,.953-1.372c6.383-4.749,15.125.748,23.055,1.372,7.35.577,14.248-3.245,20.626-6.939" transform="translate(88.196 -80.538)" fill="none" stroke="#58cbfb" stroke-linecap="round" stroke-miterlimit="10" stroke-width="3"/>
    <path id="Caminho_653" data-name="Caminho 653" d="M183.869,365.976c4.338,1.852,8.846,3.827,11.864,7.452,6.467,7.771,3.735,19.816,8.37,28.8a6.1,6.1,0,0,0,2.588,2.9c3.729,1.752,7.039-3.482,6.912-7.6s-.722-10.748-.746-10.358c.452,7.213,7.615,12.369,14.427,14.79a9.312,9.312,0,0,0,6.26.335c2-.734,3.612-2.815,3.249-4.917-.276-1.585-1.529-2.793-2.713-3.88l-9.856-9.049c-.452-.272,9.085,4.976,14.194,4.956,3.878-.016,8.742-2.506,7.916-6.295-.464-2.132-2.578-3.427-4.512-4.438-4.4-2.3-13.8-6.522-13.422-6.438,4.516,1.746,9.288,3.522,14.078,2.811s9.433-4.884,8.83-9.688c-.493-3.919-4.273-6.765-8.155-7.485s-11.794,1.125-11.7,1.145a18.619,18.619,0,0,0,13.268-10.7,4.653,4.653,0,0,0,0-2.852,2.1,2.1,0,0,0-.953-1.372c-6.383-4.749-15.125.748-23.055,1.372-7.35.577-14.248-3.245-20.626-6.939" transform="translate(-97.982 -87.892)" fill="none" stroke="#58cbfb" stroke-linecap="round" stroke-miterlimit="10" stroke-width="3"/>
    <path id="Caminho_654" data-name="Caminho 654" d="M183.869,365.036c4.338-1.852,8.846-3.827,11.864-7.452,6.467-7.771,3.735-19.816,8.37-28.8a6.1,6.1,0,0,1,2.588-2.9c3.729-1.752,7.039,3.482,6.912,7.6s-.722,10.748-.746,10.358c.452-7.213,7.615-12.369,14.427-14.79a9.312,9.312,0,0,1,6.26-.335c2,.734,3.612,2.815,3.249,4.917-.276,1.585-1.529,2.793-2.713,3.88l-9.856,9.049c-.452.272,9.085-4.976,14.194-4.956,3.878.016,8.742,2.506,7.916,6.295-.464,2.132-2.578,3.427-4.512,4.438-4.4,2.3-13.8,6.522-13.422,6.438,4.516-1.746,9.288-3.523,14.078-2.811s9.433,4.884,8.83,9.688c-.493,3.919-4.273,6.765-8.155,7.484s-11.794-1.125-11.7-1.145a18.619,18.619,0,0,1,13.268,10.7,4.653,4.653,0,0,1,0,2.852,2.1,2.1,0,0,1-.953,1.372c-6.383,4.749-15.125-.748-23.055-1.372-7.35-.577-14.248,3.245-20.626,6.939" transform="translate(-97.982 78.417)" fill="none" stroke="#58cbfb" stroke-linecap="round" stroke-miterlimit="10" stroke-width="3"/>
  </g>
</svg>
