<svg xmlns="http://www.w3.org/2000/svg" width="213.072" height="200.927" viewBox="0 0 213.072 200.927">
  <g id="Grupo_321" data-name="Grupo 321" transform="translate(-654.548 -266.01)">
    <g id="Grupo_317" data-name="Grupo 317">
      <g id="Grupo_314" data-name="Grupo 314">
        <path id="Caminho_577" data-name="Caminho 577" d="M685.468,355.231c7.277-5.679,10.353-7.559,16.348-9.482,15.175-4.868,31.375-6.878,46.869-3.415s30.222,12.794,38.982,27.188c11,18.071,11.2,42.941,1.488,61.873s-28.555,31.537-48.313,33.684-40.01-5.777-54.885-20.154c-13.494-13.041-22.889-32.193-21.776-51.844.852-15.041,12.668-32.653,20.576-37.156Z" fill="none" stroke="#58cbfb" stroke-linecap="round" stroke-miterlimit="10" stroke-width="3"/>
        <path id="Caminho_578" data-name="Caminho 578" d="M716.65,430.407a3.073,3.073,0,0,1,1.1-.636,6.043,6.043,0,0,1,3.143-.229,4.1,4.1,0,0,1,2.615,1.823,4.393,4.393,0,0,1,.1,4.149,4.215,4.215,0,0,1-3.24,2.259,4.657,4.657,0,0,1-3.68-1.352,4.609,4.609,0,0,1-1.46-3.477,3.688,3.688,0,0,1,1.379-2.492Z" fill="none" stroke="#58cbfb" stroke-linecap="round" stroke-miterlimit="10" stroke-width="3"/>
        <path id="Caminho_579" data-name="Caminho 579" d="M699.47,392.9a3.786,3.786,0,0,1,1.359-.787,7.456,7.456,0,0,1,3.9-.284,5.079,5.079,0,0,1,3.241,2.26,5.446,5.446,0,0,1,.124,5.145,5.229,5.229,0,0,1-4.017,2.8,5.973,5.973,0,0,1-6.361-5.558c-.009-.142-.014-.285-.013-.427a4.562,4.562,0,0,1,1.711-3.089Z" fill="none" stroke="#58cbfb" stroke-linecap="round" stroke-miterlimit="10" stroke-width="3"/>
        <path id="Caminho_580" data-name="Caminho 580" d="M735.8,430.319a3.042,3.042,0,0,1,1.1-.635,6.022,6.022,0,0,1,3.143-.229,4.1,4.1,0,0,1,2.614,1.824,4.388,4.388,0,0,1,.1,4.148,4.218,4.218,0,0,1-3.24,2.26,4.664,4.664,0,0,1-3.68-1.352,4.613,4.613,0,0,1-1.461-3.477,3.685,3.685,0,0,1,1.38-2.491Z" fill="none" stroke="#58cbfb" stroke-linecap="round" stroke-miterlimit="10" stroke-width="3"/>
        <path id="Caminho_581" data-name="Caminho 581" d="M751.26,393.156a3.817,3.817,0,0,1,1.359-.788,7.5,7.5,0,0,1,3.9-.284,5.087,5.087,0,0,1,3.241,2.261,5.444,5.444,0,0,1,.123,5.144,5.225,5.225,0,0,1-4.017,2.8,5.775,5.775,0,0,1-4.563-1.675,5.715,5.715,0,0,1-1.81-4.31,4.567,4.567,0,0,1,1.71-3.09Z" fill="none" stroke="#58cbfb" stroke-linecap="round" stroke-miterlimit="10" stroke-width="3"/>
        <path id="Caminho_582" data-name="Caminho 582" d="M666.214,380.062c-4.834-10.59-9.535-21.572-10.106-33.2a11.788,11.788,0,0,1,.492-4.738c1.152-3.061,4.392-4.864,7.589-5.554,5.463-1.179,11.234.17,16.218,2.7s9.3,6.171,13.516,9.843" fill="none" stroke="#58cbfb" stroke-linecap="round" stroke-miterlimit="10" stroke-width="3"/>
        <path id="Caminho_584" data-name="Caminho 584" d="M780.561,351.258a10.845,10.845,0,0,0-4.323,4.876" fill="none" stroke="#58cbfb" stroke-linecap="round" stroke-miterlimit="10" stroke-width="3"/>
        <path id="Caminho_585" data-name="Caminho 585" d="M685.46,353.732a62.467,62.467,0,0,0-28.979-9.846" fill="none" stroke="#58cbfb" stroke-linecap="round" stroke-miterlimit="10" stroke-width="3"/>
        <path id="Caminho_586" data-name="Caminho 586" d="M745.937,416.859c-2.164-1.844-5.037-2.6-7.834-3.115a42.426,42.426,0,0,0-17.91.129,25.383,25.383,0,0,0-14.775,9.678c-3.432,4.942-4.547,11.617-2.19,17.152a12.875,12.875,0,0,0,1.892,3.171,16.283,16.283,0,0,0,2.892,2.646,37.853,37.853,0,0,0,14.439,6.4c8.558,1.9,18,1.165,25.366-3.583s12.108-13.957,10.155-22.5" fill="none" stroke="#58cbfb" stroke-linecap="round" stroke-miterlimit="10" stroke-width="3"/>
        <path id="Caminho_577-2" data-name="Caminho 577" d="M767,348.442a29.121,29.121,0,0,1,7.6-4.233" fill="none" stroke="#58cbfb" stroke-linecap="round" stroke-miterlimit="10" stroke-width="3"/>
        <path id="Caminho_578-2" data-name="Caminho 578" d="M791.409,375.464a7.15,7.15,0,0,1,.823-1.947q2.882-5.3,5.435-10.767" fill="none" stroke="#58cbfb" stroke-linecap="round" stroke-miterlimit="10" stroke-width="3"/>
      </g>
      <g id="Grupo_315" data-name="Grupo 315">
        <path id="Caminho_587" data-name="Caminho 587" d="M741.011,394.051a120.176,120.176,0,0,0,25.068-8.745" fill="none" stroke="#58cbfb" stroke-linecap="round" stroke-miterlimit="10" stroke-width="3"/>
        <path id="Caminho_588" data-name="Caminho 588" d="M766.514,384.633a51.659,51.659,0,0,0,12.829,4.307" fill="none" stroke="#58cbfb" stroke-linecap="round" stroke-miterlimit="10" stroke-width="3"/>
      </g>
      <g id="Grupo_316" data-name="Grupo 316">
        <path id="Caminho_589" data-name="Caminho 589" d="M718.968,393.907a120.168,120.168,0,0,1-25.135-8.551" fill="none" stroke="#58cbfb" stroke-linecap="round" stroke-miterlimit="10" stroke-width="3"/>
        <path id="Caminho_590" data-name="Caminho 590" d="M693.393,384.686a51.7,51.7,0,0,1-12.8,4.4" fill="none" stroke="#58cbfb" stroke-linecap="round" stroke-miterlimit="10" stroke-width="3"/>
      </g>
      <path id="Caminho_591" data-name="Caminho 591" d="M674.235,366.878q52.613-3.969,105.386-5.177" fill="none" stroke="#58cbfb" stroke-linecap="round" stroke-miterlimit="10" stroke-width="3"/>
      <path id="Caminho_592" data-name="Caminho 592" d="M667.651,381.321a1145.04,1145.04,0,0,1,120.639-6.035" fill="none" stroke="#58cbfb" stroke-linecap="round" stroke-miterlimit="10" stroke-width="3"/>
      <path id="Caminho_593" data-name="Caminho 593" d="M794.08,338.61" fill="none" stroke="#58cbfb" stroke-linecap="round" stroke-miterlimit="10" stroke-width="3"/>
    </g>
    <path id="Caminho_594" data-name="Caminho 594" d="M821.245,410.806c.256.343.516.692.821,1.144,0,0,4.23,5.057,3.549,13.565a2.64,2.64,0,0,1-.253,1.08c-.437.791-1.473.968-2.369,1.085-1.907.251-16.091,4.412-38.079,11.21" fill="none" stroke="#58cbfb" stroke-linecap="round" stroke-miterlimit="10" stroke-width="3"/>
    <path id="Caminho_595" data-name="Caminho 595" d="M794.656,416.356c.281-.409,5.482-7.858,11.33-10.533" fill="none" stroke="#58cbfb" stroke-linecap="round" stroke-miterlimit="10" stroke-width="3"/>
    <g id="Grupo_320" data-name="Grupo 320">
      <g id="Grupo_319" data-name="Grupo 319">
        <path id="Caminho_596" data-name="Caminho 596" d="M824.656,268.234a87.228,87.228,0,0,0-26.308,7.46,63.454,63.454,0,0,0-13.785,8.461,47.689,47.689,0,0,0-16.836,29.456,43.287,43.287,0,0,0,8.5,32.671c5.361,6.809,12.8,11.769,20.759,15.2,12.431,5.366,26.889,7.121,39.55,2.326A45.417,45.417,0,0,0,860.4,341.975a54.942,54.942,0,0,0,5.135-32.169c-1.444-10.692-5.863-21.1-13.238-28.97S834.5,267.79,823.714,267.544" fill="none" stroke="#58cbfb" stroke-linecap="round" stroke-miterlimit="10" stroke-width="3"/>
        <path id="Caminho_597" data-name="Caminho 597" d="M779,348q38.419-30.906,78.872-59.183" fill="none" stroke="#58cbfb" stroke-linecap="round" stroke-miterlimit="10" stroke-width="3"/>
        <path id="Caminho_598" data-name="Caminho 598" d="M808.418,365.618a370.83,370.83,0,0,0-1.542,52.934" fill="none" stroke="#58cbfb" stroke-linecap="round" stroke-miterlimit="10" stroke-width="3"/>
        <path id="Caminho_599" data-name="Caminho 599" d="M822.525,366.3a478.119,478.119,0,0,1-2.517,53.657" fill="none" stroke="#58cbfb" stroke-linecap="round" stroke-miterlimit="10" stroke-width="3"/>
        <g id="Grupo_318" data-name="Grupo 318">
          <path id="Caminho_600" data-name="Caminho 600" d="M812.24,326a6.332,6.332,0,0,1,11.907-1.231,2.641,2.641,0,0,1,.28,1.733,3.609,3.609,0,0,1-.394.85c-1.906,3.373-2.9,7.286-5.344,10.29a102.718,102.718,0,0,1-6.45-11.432" fill="none" stroke="#58cbfb" stroke-linecap="round" stroke-miterlimit="10" stroke-width="3"/>
          <path id="Caminho_601" data-name="Caminho 601" d="M819.037,310.279a16.776,16.776,0,0,0,7.125-7.294,21.825,21.825,0,0,0,2.338-10.909v-.1a1.942,1.942,0,0,0-1.639-2.082,10.21,10.21,0,0,0-2.928.408,1.376,1.376,0,0,1-1.586-.959,3.555,3.555,0,0,0-3.119-2.487,3.492,3.492,0,0,0-2.919,2.212,1.351,1.351,0,0,1-1.709.852l-.081-.031a5.1,5.1,0,0,0-1.357-.442,3.149,3.149,0,0,0-2.794.849c-1.044,1.072-1.291,2.9-1.194,4.555.268,4.543,2.561,8.556,5.173,11.849,1.306,1.648,2.8,3.238,4.639,3.762" fill="none" stroke="#58cbfb" stroke-linecap="round" stroke-miterlimit="10" stroke-width="3"/>
          <path id="Caminho_602" data-name="Caminho 602" d="M827.5,298.591c.952.306,9.052,3.035,13.8,10.478s4.613,17.3.6,25.111a25.522,25.522,0,0,1-19.607,13.668c-8.019.871-16.238-2.345-22.275-8.178-5.476-5.293-9.289-13.065-8.838-21.042.346-6.1,5.141-13.252,8.35-15.079l.289-.281c2.953-2.3,4.2-3.068,6.635-3.848a34.989,34.989,0,0,1,3.54-.991" fill="none" stroke="#58cbfb" stroke-linecap="round" stroke-miterlimit="10" stroke-width="3"/>
          <path id="Caminho_603" data-name="Caminho 603" d="M806.615,313.208a1.577,1.577,0,0,1,.552-.32,3.051,3.051,0,0,1,1.582-.115,2.068,2.068,0,0,1,1.316.917,2.211,2.211,0,0,1,.05,2.088,2.12,2.12,0,0,1-1.63,1.137,2.423,2.423,0,0,1-2.582-2.253c0-.058-.005-.117-.005-.176a1.857,1.857,0,0,1,.694-1.254Z" fill="none" stroke="#58cbfb" stroke-linecap="round" stroke-miterlimit="10" stroke-width="2"/>
          <path id="Caminho_604" data-name="Caminho 604" d="M826.933,313.338a1.518,1.518,0,0,1,.552-.32,3.03,3.03,0,0,1,1.582-.115,2.058,2.058,0,0,1,1.316.918,2.211,2.211,0,0,1,.05,2.088,2.125,2.125,0,0,1-1.63,1.137,2.424,2.424,0,0,1-2.582-2.256c0-.058-.005-.116-.005-.174a1.851,1.851,0,0,1,.694-1.253Z" fill="none" stroke="#58cbfb" stroke-linecap="round" stroke-miterlimit="10" stroke-width="2"/>
        </g>
      </g>
      <path id="Caminho_605" data-name="Caminho 605" d="M806.1,418.162a44.5,44.5,0,0,0,15.691,1.777" fill="none" stroke="#58cbfb" stroke-linecap="round" stroke-miterlimit="10" stroke-width="3"/>
    </g>
  </g>
</svg>
